<svg width="16" height="16" viewBox="0 0 16 16" fill="none" xmlns="http://www.w3.org/2000/svg">
<path id="add" d="M6.90078 9.10005H1.40078C1.08911 9.10005 0.827865 8.99463 0.617031 8.7838C0.406198 8.57297 0.300781 8.31172 0.300781 8.00005C0.300781 7.68838 0.406198 7.42713 0.617031 7.2163C0.827865 7.00547 1.08911 6.90005 1.40078 6.90005H6.90078V1.40005C6.90078 1.08838 7.0062 0.827132 7.21703 0.616299C7.42786 0.405465 7.68911 0.300049 8.00078 0.300049C8.31245 0.300049 8.5737 0.405465 8.78453 0.616299C8.99537 0.827132 9.10078 1.08838 9.10078 1.40005V6.90005H14.6008C14.9124 6.90005 15.1737 7.00547 15.3845 7.2163C15.5954 7.42713 15.7008 7.68838 15.7008 8.00005C15.7008 8.31172 15.5954 8.57297 15.3845 8.7838C15.1737 8.99463 14.9124 9.10005 14.6008 9.10005H9.10078V14.6C9.10078 14.9117 8.99537 15.173 8.78453 15.3838C8.5737 15.5946 8.31245 15.7 8.00078 15.7C7.68911 15.7 7.42786 15.5946 7.21703 15.3838C7.0062 15.173 6.90078 14.9117 6.90078 14.6V9.10005Z" fill="#0B98FF"/>
</svg>
