<svg width="24" height="24" viewBox="0 0 24 24" fill="none" xmlns="http://www.w3.org/2000/svg">
<g id="fluent:ios-arrow-24-filled">
<path id="Vector" d="M12.1881 6.18038C12.128 6.11359 12.081 6.03502 12.0499 5.94916C12.0187 5.8633 12.0039 5.77183 12.0064 5.67998C12.0089 5.58812 12.0285 5.49767 12.0643 5.4138C12.1 5.32993 12.1512 5.25428 12.2148 5.19116C12.2783 5.12805 12.3531 5.0787 12.4349 5.04595C12.5166 5.0132 12.6037 4.99768 12.6912 5.00028C12.7786 5.00288 12.8647 5.02354 12.9446 5.0611C13.0244 5.09865 13.0965 5.15236 13.1565 5.21915L18.8179 11.5155C18.9349 11.6453 19 11.8173 19 11.9961C19 12.1748 18.9349 12.3468 18.8179 12.4767L13.1565 18.7737C13.0969 18.8419 13.0248 18.8971 12.9447 18.9358C12.8646 18.9746 12.7779 18.9963 12.6897 18.9996C12.6015 19.0029 12.5136 18.9877 12.431 18.955C12.3485 18.9223 12.2729 18.8727 12.2088 18.8091C12.1446 18.7454 12.0931 18.669 12.0573 18.5843C12.0215 18.4996 12.0021 18.4083 12.0002 18.3156C11.9982 18.223 12.0139 18.1308 12.0461 18.0446C12.0784 17.9583 12.1267 17.8797 12.1881 17.8132L17.4179 11.9961L12.1881 6.18038Z" fill="white"/>
</g>
</svg>
