<svg width="20" height="21" viewBox="0 0 20 21" fill="none" xmlns="http://www.w3.org/2000/svg">
<g id="change_circle">
<mask id="mask0_6984_12637" style="mask-type:alpha" maskUnits="userSpaceOnUse" x="0" y="0" width="20" height="21">
<rect id="Bounding box" y="0.5" width="20" height="20" fill="#D9D9D9"/>
</mask>
<g mask="url(#mask0_6984_12637)">
<path id="change_circle_2" d="M10.043 16.3333L12.418 13.9791L10.043 11.625L9.16797 12.5L10.0638 13.3958C9.67491 13.4097 9.29644 13.3472 8.92839 13.2083C8.56033 13.0694 8.23047 12.8541 7.9388 12.5625C7.66102 12.2847 7.44922 11.9652 7.30339 11.6041C7.15755 11.243 7.08464 10.8819 7.08464 10.5208C7.08464 10.2847 7.11589 10.0486 7.17839 9.81246C7.24089 9.57635 7.32769 9.34718 7.4388 9.12496L6.52214 8.20829C6.28602 8.55551 6.11241 8.92357 6.0013 9.31246C5.89019 9.70135 5.83464 10.0972 5.83464 10.5C5.83464 11.0277 5.9388 11.5486 6.14714 12.0625C6.35547 12.5763 6.66102 13.0347 7.0638 13.4375C7.46658 13.8402 7.91797 14.1423 8.41797 14.3437C8.91797 14.5451 9.43186 14.6527 9.95963 14.6666L9.16797 15.4583L10.043 16.3333ZM13.4805 12.7916C13.7166 12.4444 13.8902 12.0763 14.0013 11.6875C14.1124 11.2986 14.168 10.9027 14.168 10.5C14.168 9.97218 14.0673 9.44788 13.8659 8.92704C13.6645 8.40621 13.3624 7.9444 12.9596 7.54163C12.5569 7.13885 12.102 6.84024 11.5951 6.64579C11.0881 6.45135 10.5707 6.35413 10.043 6.35413L10.8346 5.54163L9.95963 4.66663L7.58464 7.02079L9.95963 9.37496L10.8346 8.49996L9.91797 7.58329C10.293 7.58329 10.6749 7.65621 11.0638 7.80204C11.4527 7.94788 11.786 8.15968 12.0638 8.43746C12.3416 8.71524 12.5534 9.03468 12.6992 9.39579C12.8451 9.7569 12.918 10.118 12.918 10.4791C12.918 10.7152 12.8867 10.9513 12.8242 11.1875C12.7617 11.4236 12.6749 11.6527 12.5638 11.875L13.4805 12.7916ZM10.0013 18.8333C8.84852 18.8333 7.76519 18.6145 6.7513 18.177C5.73741 17.7395 4.85547 17.1458 4.10547 16.3958C3.35547 15.6458 2.76172 14.7638 2.32422 13.75C1.88672 12.7361 1.66797 11.6527 1.66797 10.5C1.66797 9.34718 1.88672 8.26385 2.32422 7.24996C2.76172 6.23607 3.35547 5.35413 4.10547 4.60413C4.85547 3.85413 5.73741 3.26038 6.7513 2.82288C7.76519 2.38538 8.84852 2.16663 10.0013 2.16663C11.1541 2.16663 12.2374 2.38538 13.2513 2.82288C14.2652 3.26038 15.1471 3.85413 15.8971 4.60413C16.6471 5.35413 17.2409 6.23607 17.6784 7.24996C18.1159 8.26385 18.3346 9.34718 18.3346 10.5C18.3346 11.6527 18.1159 12.7361 17.6784 13.75C17.2409 14.7638 16.6471 15.6458 15.8971 16.3958C15.1471 17.1458 14.2652 17.7395 13.2513 18.177C12.2374 18.6145 11.1541 18.8333 10.0013 18.8333ZM10.0013 17.1666C11.8624 17.1666 13.4388 16.5208 14.7305 15.2291C16.0221 13.9375 16.668 12.3611 16.668 10.5C16.668 8.63885 16.0221 7.06246 14.7305 5.77079C13.4388 4.47913 11.8624 3.83329 10.0013 3.83329C8.14019 3.83329 6.5638 4.47913 5.27214 5.77079C3.98047 7.06246 3.33464 8.63885 3.33464 10.5C3.33464 12.3611 3.98047 13.9375 5.27214 15.2291C6.5638 16.5208 8.14019 17.1666 10.0013 17.1666Z" fill="#1C1B1F"/>
</g>
</g>
</svg>
