<svg width="22" height="22" viewBox="0 0 22 22" fill="none" xmlns="http://www.w3.org/2000/svg">
<path id="close_small" d="M11.0002 13.0164L3.76685 20.496C3.44465 20.8292 3.05576 20.9958 2.6002 20.9958C2.14466 20.9958 1.75578 20.8292 1.43354 20.496C1.11131 20.1628 0.950195 19.7607 0.950195 19.2896C0.950195 18.8186 1.11131 18.4164 1.43354 18.0833L8.66695 10.6036L1.43354 3.17571C1.11131 2.84254 0.950195 2.44043 0.950195 1.96935C0.950195 1.49831 1.11131 1.09619 1.43354 0.762987C1.75578 0.429784 2.14466 0.263184 2.6002 0.263184C3.05576 0.263184 3.44465 0.429784 3.76685 0.762987L11.0002 8.24262L18.1836 0.762987C18.4836 0.429784 18.8669 0.263184 19.3336 0.263184C19.8003 0.263184 20.1947 0.429784 20.5169 0.762987C20.8503 1.10767 21.0169 1.51267 21.0169 1.97798C21.0169 2.4433 20.8503 2.84254 20.5169 3.17571L13.2835 10.6036L20.5169 18.0833C20.8392 18.4164 21.0003 18.8186 21.0003 19.2896C21.0003 19.7607 20.8392 20.1628 20.5169 20.496C20.1836 20.8407 19.7919 21.013 19.3419 21.013C18.8919 21.013 18.5058 20.8407 18.1836 20.496L11.0002 13.0164Z" fill="#1C1B1F"/>
</svg>
