<svg width="32" height="32" viewBox="0 0 32 32" fill="none" xmlns="http://www.w3.org/2000/svg">
<rect width="32" height="32" rx="8" fill="#0B98FF"/>
<mask id="mask0_5839_10912" style="mask-type:alpha" maskUnits="userSpaceOnUse" x="0" y="0" width="32" height="32">
<rect width="32" height="32" fill="#D9D9D9"/>
</mask>
<g mask="url(#mask0_5839_10912)">
<path d="M13.598 20.128C11.754 20.128 10.1933 19.4889 8.91597 18.2107C7.63866 16.9325 7 15.3836 7 13.564C7 11.7445 7.63911 10.1956 8.91734 8.91734C10.1956 7.63911 11.7473 7 13.5725 7C15.3977 7 16.9466 7.63911 18.2192 8.91734C19.4917 10.1956 20.128 11.7453 20.128 13.5666C20.128 14.3018 20.009 15.0066 19.7709 15.6812C19.5328 16.3557 19.1871 16.9764 18.7336 17.5432L24.7534 23.5291C24.9178 23.6884 25 23.8912 25 24.1375C25 24.3837 24.9178 24.589 24.7534 24.7534C24.589 24.9178 24.3837 25 24.1375 25C23.8912 25 23.6884 24.9178 23.529 24.7534L17.5262 18.7506C17.0161 19.1814 16.4239 19.5187 15.7499 19.7624C15.0758 20.0061 14.3585 20.128 13.598 20.128ZM13.581 18.4275C14.9273 18.4275 16.0716 17.9528 17.0139 17.0033C17.9563 16.0539 18.4275 14.9074 18.4275 13.564C18.4275 12.2206 17.9563 11.0742 17.0139 10.1247C16.0716 9.17525 14.9273 8.70053 13.581 8.70053C12.2253 8.70053 11.073 9.17525 10.124 10.1247C9.175 11.0742 8.7005 12.2206 8.7005 13.564C8.7005 14.9074 9.175 16.0539 10.124 17.0033C11.073 17.9528 12.2253 18.4275 13.581 18.4275Z" fill="#F2F4F7"/>
</g>
</svg>
