<svg width="20" height="21" viewBox="0 0 20 21" fill="none" xmlns="http://www.w3.org/2000/svg">
<g id="stylus">
<mask id="mask0_6984_12632" style="mask-type:alpha" maskUnits="userSpaceOnUse" x="0" y="0" width="20" height="21">
<rect id="Bounding box" y="0.5" width="20" height="20" fill="#D9D9D9"/>
</mask>
<g mask="url(#mask0_6984_12632)">
<path id="stylus_2" d="M3.47723 18C3.18556 18.0695 2.93209 17.9966 2.71681 17.7813C2.50153 17.566 2.42862 17.3125 2.49806 17.0209L3.3314 13.0417L7.4564 17.1667L3.47723 18ZM7.4564 17.1667L3.3314 13.0417L12.8731 3.50004C13.1925 3.1806 13.5883 3.02087 14.0606 3.02087C14.5328 3.02087 14.9286 3.1806 15.2481 3.50004L16.9981 5.25004C17.3175 5.56948 17.4772 5.96532 17.4772 6.43754C17.4772 6.90976 17.3175 7.3056 16.9981 7.62504L7.4564 17.1667ZM14.0606 4.66671L5.43556 13.2917L7.2064 15.0625L15.8314 6.43754L14.0606 4.66671Z" fill="#1C1B1F"/>
</g>
</g>
</svg>
