<svg width="25" height="24" viewBox="0 0 25 24" fill="none" xmlns="http://www.w3.org/2000/svg">
<rect width="25" height="24" fill="#F5F5F5"/>
<g id="SEARCH">
<path d="M-2470 -1631C-2470 -1632.1 -2469.1 -1633 -2468 -1633H24772C24773.1 -1633 24774 -1632.1 24774 -1631V22859C24774 22860.1 24773.1 22861 24772 22861H-2468C-2469.1 22861 -2470 22860.1 -2470 22859V-1631Z" fill="#282424"/>
<path d="M-2468 -1632H24772V-1634H-2468V-1632ZM24773 -1631V22859H24775V-1631H24773ZM24772 22860H-2468V22862H24772V22860ZM-2469 22859V-1631H-2471V22859H-2469ZM-2468 22860C-2468.55 22860 -2469 22859.6 -2469 22859H-2471C-2471 22860.7 -2469.66 22862 -2468 22862V22860ZM24773 22859C24773 22859.6 24772.6 22860 24772 22860V22862C24773.7 22862 24775 22860.7 24775 22859H24773ZM24772 -1632C24772.6 -1632 24773 -1631.55 24773 -1631H24775C24775 -1632.66 24773.7 -1634 24772 -1634V-1632ZM-2468 -1634C-2469.66 -1634 -2471 -1632.66 -2471 -1631H-2469C-2469 -1631.55 -2468.55 -1632 -2468 -1632V-1634Z" fill="black" fill-opacity="0.1"/>
<g id="Frame 1009">
<rect width="1920" height="2165" transform="translate(-1232 -402)" fill="white"/>
<g id="Frame 1027">
<g id="Frame 1003">
<g id="Frame 1002">
<rect x="-588.5" y="-17" width="633" height="58" rx="12" fill="#F2F4F7"/>
<rect x="-588.5" y="-17" width="633" height="58" rx="12" stroke="#ECF0F3" stroke-width="2"/>
<g id="Frame 1007">
<g id="Frame 1006">
<g id="search">
<mask id="mask0_5348_8678" style="mask-type:alpha" maskUnits="userSpaceOnUse" x="0" y="0" width="25" height="24">
<rect id="Bounding box" x="0.5" width="24" height="24" fill="#D9D9D9"/>
</mask>
<g mask="url(#mask0_5348_8678)">
<path id="search_2" d="M20.1 21L13.8 14.7C13.3 15.1 12.725 15.4167 12.075 15.65C11.425 15.8833 10.7333 16 10 16C8.18333 16 6.64583 15.3708 5.3875 14.1125C4.12917 12.8542 3.5 11.3167 3.5 9.5C3.5 7.68333 4.12917 6.14583 5.3875 4.8875C6.64583 3.62917 8.18333 3 10 3C11.8167 3 13.3542 3.62917 14.6125 4.8875C15.8708 6.14583 16.5 7.68333 16.5 9.5C16.5 10.2333 16.3833 10.925 16.15 11.575C15.9167 12.225 15.6 12.8 15.2 13.3L21.5 19.6L20.1 21ZM10 14C11.25 14 12.3125 13.5625 13.1875 12.6875C14.0625 11.8125 14.5 10.75 14.5 9.5C14.5 8.25 14.0625 7.1875 13.1875 6.3125C12.3125 5.4375 11.25 5 10 5C8.75 5 7.6875 5.4375 6.8125 6.3125C5.9375 7.1875 5.5 8.25 5.5 9.5C5.5 10.75 5.9375 11.8125 6.8125 12.6875C7.6875 13.5625 8.75 14 10 14Z" fill="#333D4B"/>
</g>
</g>
</g>
</g>
</g>
</g>
</g>
</g>
</g>
</svg>
